# xmcd
#
# Track frame offsets: 
#        150
#        4938
#        22306
#        40262
#        45011
#        65742
#        85914
#        111965
#
# Disc length: 1730 seconds
#
# Revision: 0
# Processed by: cddbd v1.5.2PL0 Copyright (c) Steve Scherf et al.
# Submitted via: ExactAudioCopy v0.95b3
#
DISCID=6306c008
DTITLE=휘성 - with all my heart and soul
DYEAR=2008
DGENRE=R&B
TTITLE0=Real Slow gotta go again
TTITLE1=완벽한 남자
TTITLE2=별이 지다..
TTITLE3=interlude with 효리
TTITLE4=Choco Luv
TTITLE5=Prayer 4 Soul feat.Lovelyn
TTITLE6=나락(奈落)
TTITLE7=별이 지다..(Inst.)
EXTD=
EXTT0=
EXTT1=
EXTT2=
EXTT3=
EXTT4=
EXTT5=
EXTT6=
EXTT7=
PLAYORDER=
